<svg width="11" height="15" fill="none" xmlns="http://www.w3.org/2000/svg"><path d="M4.703 14.477c-.437-.639-.939-1.359-1.504-2.16a87.753 87.753 0 00-1.176-1.696c-.237-.328-.51-.73-.82-1.203a21.93 21.93 0 01-.629-1.04c-.09-.2-.2-.455-.328-.765a4.86 4.86 0 01-.219-.793C.01 6.583 0 6.31 0 6c0-1.458.51-2.698 1.531-3.719C2.552 1.261 3.791.75 5.25.75c1.458 0 2.698.51 3.719 1.531C9.989 3.302 10.5 4.541 10.5 6c0 .31-.018.583-.055.82-.018.22-.09.483-.218.793-.11.31-.22.565-.329.766-.09.2-.291.547-.601 1.039-.31.474-.583.875-.82 1.203a204.4 204.4 0 00-1.204 1.695c-.546.802-1.039 1.522-1.476 2.16a.627.627 0 01-.547.274.627.627 0 01-.547-.273zM3.691 7.559c.438.419.957.628 1.559.628s1.112-.21 1.531-.628A2.13 2.13 0 007.438 6a2.04 2.04 0 00-.657-1.531 2.04 2.04 0 00-1.531-.657 2.13 2.13 0 00-1.559.657c-.419.419-.628.93-.628 1.531 0 .602.21 1.121.628 1.559z" fill="#E8C300"/></svg>