<svg width="20" height="18" fill="none" xmlns="http://www.w3.org/2000/svg"><path d="M17.93 4.921c.026.105.039.274.039.508 0 1.38-.26 2.76-.782 4.14a13.106 13.106 0 01-2.226 3.75c-.938 1.12-2.162 2.032-3.672 2.735-1.51.703-3.177 1.055-5 1.055-2.292 0-4.388-.612-6.289-1.836.286.026.612.039.977.039 1.9 0 3.606-.586 5.117-1.758-.912 0-1.719-.26-2.422-.781a4.236 4.236 0 01-1.406-2.031c.26.026.507.039.742.039.364 0 .729-.04 1.094-.117a3.985 3.985 0 01-1.68-.782A4.343 4.343 0 011.25 8.476 4.05 4.05 0 01.82 6.64v-.078c.573.339 1.185.52 1.836.547C1.432 6.276.82 5.129.82 3.67c0-.729.196-1.419.586-2.07a11.372 11.372 0 008.438 4.297 5.694 5.694 0 01-.078-.938c0-1.12.39-2.083 1.171-2.89.808-.807 1.771-1.211 2.891-1.211 1.198 0 2.2.43 3.008 1.289a8.345 8.345 0 002.617-.977c-.312.964-.911 1.72-1.797 2.266A8.81 8.81 0 0020 2.773a9.016 9.016 0 01-2.07 2.148z" fill="#fff"/></svg>