<svg width="27" height="20" fill="none" xmlns="http://www.w3.org/2000/svg"><path d="M26.477 2.023h-1.78v-.595a.514.514 0 00-.377-.513 15.014 15.014 0 00-3.773-.473c-2.093 0-4.946.462-7.055 2.567C11.4.884 8.525.442 6.437.442a15.014 15.014 0 00-3.773.473.514.514 0 00-.377.513v.59H.523A.518.518 0 000 2.532v16.395c0 .284.234.513.523.513a.53.53 0 00.257-.066c.052-.026 5.286-2.834 12.592-1.027h.125a.538.538 0 00.126 0c7.327-1.822 12.56.98 12.592 1.027a.532.532 0 00.523 0 .511.511 0 00.262-.442V2.537a.518.518 0 00-.523-.514zM1.047 18.111V3.05h1.25v12.873a.518.518 0 00.602.513 23.344 23.344 0 013.271-.256 13.82 13.82 0 014.47.662 19.584 19.584 0 00-9.593 1.268zm5.123-2.952c-.952.002-1.902.062-2.847.18V1.834a14.705 14.705 0 013.104-.34c1.957 0 4.658.442 6.531 2.516l.016 12.787c-1.089-.698-3.213-1.638-6.804-1.638zM14.02 4.01c1.874-2.053 4.575-2.515 6.532-2.515a14.77 14.77 0 013.104.339v13.505a23.487 23.487 0 00-2.832-.185c-3.569 0-5.699.94-6.803 1.638V4.01zm11.928 14.1a19.587 19.587 0 00-9.614-1.267 13.85 13.85 0 014.49-.662 23.39 23.39 0 013.292.251.522.522 0 00.602-.513V3.05h1.251l-.02 15.06z" fill="#fff" opacity=".5"/></svg>