<svg width="16" height="16" fill="none" xmlns="http://www.w3.org/2000/svg"><path d="M8 0C5.825 0 5.554.01 4.703.046 3.85.088 3.271.221 2.761.42a3.923 3.923 0 00-1.417.924A3.879 3.879 0 00.42 2.76C.222 3.27.09 3.848.047 4.702.01 5.554.001 5.824.001 8s.01 2.446.046 3.297c.042.852.175 1.432.373 1.942.201.534.517 1.017.924 1.417.399.408.883.724 1.417.924.51.195 1.09.33 1.942.372.852.039 1.122.047 3.297.047s2.445-.01 3.296-.046c.853-.043 1.433-.178 1.943-.373a3.924 3.924 0 001.416-.925 3.86 3.86 0 00.925-1.416c.195-.51.33-1.09.373-1.942.038-.852.046-1.122.046-3.297s-.01-2.446-.046-3.296c-.042-.853-.178-1.436-.373-1.943a3.923 3.923 0 00-.925-1.416A3.859 3.859 0 0013.24.418c-.51-.198-1.09-.33-1.943-.372C10.445.007 10.175 0 8 0zm0 1.44c2.136 0 2.39.01 3.235.046.778.037 1.202.167 1.484.277.348.128.663.333.921.599.266.257.47.572.596.919.11.281.24.705.277 1.484.036.844.046 1.1.046 3.235 0 2.134-.01 2.39-.049 3.234-.042.778-.172 1.203-.281 1.484a2.605 2.605 0 01-.6.922c-.26.264-.575.467-.922.596-.278.11-.708.24-1.49.276-.848.037-1.098.047-3.239.047s-2.39-.01-3.24-.05c-.779-.042-1.208-.171-1.49-.281a2.51 2.51 0 01-.919-.6 2.402 2.402 0 01-.599-.921c-.112-.279-.24-.709-.281-1.49-.029-.838-.042-1.099-.042-3.23 0-2.13.013-2.39.042-3.239.041-.782.17-1.21.281-1.49.138-.38.318-.64.599-.921a2.38 2.38 0 01.92-.6c.281-.11.7-.24 1.481-.279.849-.03 1.099-.041 3.237-.041L8 1.44zm0 2.454a4.105 4.105 0 00-2.904 7.01A4.106 4.106 0 108 3.894zm0 6.772A2.665 2.665 0 015.333 8 2.665 2.665 0 018 5.333 2.665 2.665 0 0110.666 8 2.665 2.665 0 018 10.666zm5.232-6.937a.962.962 0 01-1.921.002.96.96 0 011.921-.002z" fill="#fff"/></svg>