<svg width="12" height="13" viewBox="0 0 12 13" fill="none" xmlns="http://www.w3.org/2000/svg">
<path d="M2.75231 5.50415H0.250216C0.112101 5.50415 0 5.61625 0 5.75437V11.7594C0 11.8975 0.112101 12.0096 0.250216 12.0096H2.75231C2.89091 12.0096 3.00252 11.8975 3.00252 11.7593V5.75434C3.0025 5.61623 2.89042 5.50415 2.75231 5.50415ZM2.50209 11.5091H0.500432V6.00456H2.50209V11.5091Z" fill="#9D9FB7"/>
<path d="M7.24645 0H4.74436C4.60624 0 4.49414 0.112101 4.49414 0.250216V11.7598C4.49414 11.8979 4.60624 12.01 4.74436 12.01H7.24645C7.38456 12.01 7.49666 11.8979 7.49666 11.7598V0.250216C7.49666 0.112101 7.38456 0 7.24645 0ZM6.99623 11.5096H4.99457V0.500409H6.99623V11.5096Z" fill="#9D9FB7"/>
<path d="M11.7504 2.50171H9.24826C9.11015 2.50171 8.99805 2.61381 8.99805 2.75192V11.7594C8.99805 11.8975 9.11015 12.0096 9.24826 12.0096H11.7504C11.8885 12.0096 12.0006 11.8975 12.0006 11.7594V2.75192C12.0006 2.61379 11.8885 2.50171 11.7504 2.50171ZM11.5001 11.5092H9.49848V3.00212H11.5001V11.5092Z" fill="#9D9FB7"/>
</svg>
