<svg width="13" height="13" fill="none" xmlns="http://www.w3.org/2000/svg"><g clip-path="url(#clip0)" fill="#fff" fill-opacity=".5"><path d="M8.366 2.274H2.323c-.567 0-1.028.46-1.028 1.027v8.671c0 .568.46 1.028 1.028 1.028h6.043c.567 0 1.028-.46 1.028-1.028v-8.67a1.032 1.032 0 00-1.028-1.028zm.306 9.696a.31.31 0 01-.309.309H2.32a.309.309 0 01-.309-.31V3.302a.31.31 0 01.309-.308h6.043a.31.31 0 01.31.308v8.669z"/><path d="M10.677 0H4.634c-.567 0-1.028.46-1.028 1.028 0 .2.16.36.36.36.199 0 .359-.16.359-.36 0-.17.138-.31.309-.31h6.043c.17 0 .309.14.309.31v8.67a.31.31 0 01-.309.31c-.2 0-.36.16-.36.359 0 .2.16.36.36.36.567 0 1.028-.461 1.028-1.028V1.028C11.705.46 11.245 0 10.677 0z"/></g><defs><clipPath id="clip0"><path fill="#fff" d="M0 0h13v13H0z"/></clipPath></defs></svg>