<svg width="11" height="11" viewBox="0 0 11 11" fill="none" xmlns="http://www.w3.org/2000/svg">
<path d="M9.73689 0.442796C9.14551 -0.147599 8.18785 -0.147599 7.59647 0.442796L7.06067 0.981575L1.3572 6.68256L1.34507 6.69478C1.34214 6.69772 1.34214 6.70084 1.33901 6.70084C1.33295 6.70993 1.32386 6.71893 1.3179 6.72802C1.3179 6.73105 1.31477 6.73105 1.31477 6.73408C1.30871 6.74317 1.30578 6.74924 1.29962 6.75833C1.29668 6.76136 1.29668 6.76429 1.29365 6.76742C1.29062 6.77651 1.28759 6.78257 1.28447 6.79166C1.28447 6.7946 1.28153 6.7946 1.28153 6.79772L0.0161038 10.6034C-0.0210172 10.7117 0.00720239 10.8317 0.0887361 10.9121C0.146027 10.9686 0.2233 11.0003 0.303697 11C0.336557 10.9994 0.369132 10.9943 0.400572 10.9848L4.20292 9.71626C4.20586 9.71626 4.20586 9.71626 4.20898 9.71333C4.21855 9.71049 4.22773 9.70642 4.23616 9.70111C4.23853 9.70083 4.24061 9.69979 4.24231 9.69818C4.25131 9.69211 4.26343 9.68596 4.27252 9.6799C4.28152 9.67393 4.2907 9.66484 4.2998 9.65878C4.30283 9.65565 4.30576 9.65565 4.30576 9.65272C4.30889 9.64969 4.31495 9.64675 4.31798 9.64059L10.5572 3.40073C11.1476 2.8093 11.1476 1.85154 10.5572 1.2602L9.73689 0.442796ZM4.10605 9.00474L1.99905 6.89764L7.2726 1.62358L9.3796 3.73069L4.10605 9.00474ZM1.70227 7.45773L3.54298 9.29852L0.778979 10.2189L1.70227 7.45773ZM10.1304 2.97683L9.80952 3.30082L7.70243 1.19353L8.02648 0.869633C8.38093 0.515435 8.95545 0.515435 9.31 0.869633L10.1334 1.6931C10.4852 2.04919 10.4839 2.62244 10.1304 2.97683Z" fill="white"/>
</svg>
