<svg width="39" height="39" fill="none" xmlns="http://www.w3.org/2000/svg"><path d="M30.003 11.534a1.392 1.392 0 00-1.935 0L15.124 24.491 10.537 19.9a1.392 1.392 0 00-1.97-.034 1.395 1.395 0 000 2.006l5.572 5.577a1.392 1.392 0 001.97 0l13.928-13.943a1.395 1.395 0 00-.034-1.972z" fill="#FF2E63"/><path d="M19.5 0C8.73 0 0 8.73 0 19.5S8.73 39 19.5 39 39 30.27 39 19.5C38.989 8.735 30.265.012 19.5 0zm0 36.214c-9.231 0-16.714-7.483-16.714-16.714 0-9.231 7.483-16.714 16.714-16.714 9.231 0 16.714 7.483 16.714 16.714-.01 9.227-7.487 16.704-16.714 16.714z" fill="#FF2E63"/></svg>