<svg width="13" height="13" viewBox="0 0 13 13" fill="none" xmlns="http://www.w3.org/2000/svg">
<g clip-path="url(#clip0)">
<path d="M10.7164 3.66672H2.28333C2.19209 3.65897 2.10169 3.68912 2.03333 3.75005C1.96611 3.81461 1.93498 3.90808 1.95 4.00005L2.81663 11.5498C2.91827 12.3822 3.62805 13.006 4.46658 12.9998H8.66646C9.5286 13.0121 10.2548 12.3585 10.3331 11.4999L11.0497 3.96671C11.0542 3.88591 11.0239 3.80705 10.9664 3.75005C10.8981 3.68912 10.8077 3.65897 10.7164 3.66672ZM9.66647 11.4665C9.61409 11.974 9.17629 12.3534 8.66649 12.3331H4.46661C3.96597 12.3535 3.53563 11.9815 3.48328 11.4832L2.64999 4.33337H10.3498L9.66647 11.4665Z" fill="white"/>
<path d="M11.9331 1.50014H8.49985V0.966803C8.51835 0.451678 8.11577 0.0191118 7.60065 0.000609686C7.58374 3.58277e-06 7.5668 -0.000155918 7.5499 0.000163084H5.44994C4.93456 -0.00937507 4.50907 0.40067 4.49954 0.91605C4.49922 0.932957 4.49938 0.949896 4.49998 0.966803V1.50011H1.06672C0.882628 1.50011 0.733398 1.64934 0.733398 1.83344C0.733398 2.01753 0.882628 2.16676 1.06672 2.16676H11.9331C12.1172 2.16676 12.2664 2.01753 12.2664 1.83344C12.2664 1.64934 12.1172 1.50014 11.9331 1.50014ZM7.8332 0.966803V1.50011H5.1666V0.966803C5.14781 0.820732 5.25101 0.687102 5.39708 0.668313C5.41459 0.666048 5.4323 0.665569 5.44991 0.666813H7.54986C7.69676 0.656414 7.8243 0.767044 7.8347 0.913976C7.83598 0.931585 7.83547 0.94929 7.8332 0.966803Z" fill="white"/>
</g>
<defs>
<clipPath id="clip0">
<rect width="13" height="13" fill="white"/>
</clipPath>
</defs>
</svg>
