<svg width="13" height="13" viewBox="0 0 13 13" fill="none" xmlns="http://www.w3.org/2000/svg">
<g clip-path="url(#clip0)">
<path d="M8.36599 2.27368H2.32257C1.7555 2.27368 1.29492 2.73426 1.29492 3.30133V11.9724C1.29492 12.5395 1.7555 13.0001 2.32257 13.0001H8.36599C8.93306 13.0001 9.39363 12.5395 9.39363 11.9724V3.30133C9.39097 2.73426 8.93039 2.27368 8.36599 2.27368ZM8.67215 11.9698C8.67215 12.1402 8.53371 12.2786 8.36332 12.2786H2.31991C2.14952 12.2786 2.01108 12.1402 2.01108 11.9698V3.30133C2.01108 3.13094 2.14952 2.9925 2.31991 2.9925H8.36332C8.53371 2.9925 8.67215 3.13094 8.67215 3.30133V11.9698Z" fill="white" fill-opacity="0.5"/>
<path d="M10.677 0H4.6336C4.06653 0 3.60596 0.460577 3.60596 1.02765C3.60596 1.22732 3.76569 1.38706 3.96537 1.38706C4.16504 1.38706 4.32478 1.22732 4.32478 1.02765C4.32478 0.85726 4.46322 0.71882 4.6336 0.71882H10.677C10.8474 0.71882 10.9858 0.85726 10.9858 1.02765V9.69875C10.9858 9.86914 10.8474 10.0076 10.677 10.0076C10.4773 10.0076 10.3176 10.1673 10.3176 10.367C10.3176 10.5667 10.4773 10.7264 10.677 10.7264C11.2441 10.7264 11.7047 10.2658 11.7047 9.69875V1.02765C11.7047 0.460577 11.2441 0 10.677 0Z" fill="white" fill-opacity="0.5"/>
</g>
<defs>
<clipPath id="clip0">
<rect width="13" height="13" fill="white"/>
</clipPath>
</defs>
</svg>
