<svg width="15" height="12" fill="none" xmlns="http://www.w3.org/2000/svg"><path d="M14.89 3.825L10.517.075A.313.313 0 0010 .312v2.192c-3.492.097-5.176 1.826-5.977 3.282a7.587 7.587 0 00-.888 3.034c-.007.08-.01.16-.01.241v.025l.001.002v.008l.001.002v.003a.313.313 0 00.623-.039c0-.016 0-.055.003-.114C3.889 6.35 8.69 5.76 10 5.648v2.164a.312.312 0 00.515.237l4.375-3.75a.312.312 0 000-.474zm-4.265 3.308v-1.82A.311.311 0 0010.312 5h-.014c-.22.01-4.165.213-6.109 1.884.643-1.695 2.226-3.76 6.122-3.76h.001a.312.312 0 00.313-.312V.992l3.582 3.07-3.582 3.07z" fill="#fff" fill-opacity=".5"/><path d="M12.812 7.003a.312.312 0 00-.312.313V10c0 .345-.28.625-.625.625H1.25A.626.626 0 01.625 10V3.75c0-.345.28-.625.625-.625h4.328a.312.312 0 100-.625H1.25C.56 2.5 0 3.06 0 3.75V10c0 .69.56 1.25 1.25 1.25h10.625c.69 0 1.25-.56 1.25-1.25V7.316a.312.312 0 00-.313-.313z" fill="#fff" fill-opacity=".5"/></svg>