<svg width="11" height="11" fill="none" xmlns="http://www.w3.org/2000/svg"><path d="M9.737.443a1.515 1.515 0 00-2.14 0L7.06.982l-5.704 5.7-.012.013c-.003.003-.003.006-.006.006l-.021.027c0 .003-.003.003-.003.006l-.015.024c-.003.003-.003.006-.006.01l-.01.024-.002.006-1.266 3.805a.298.298 0 00.073.31.305.305 0 00.312.072l3.802-1.269c.003 0 .003 0 .006-.003a.11.11 0 00.027-.012.01.01 0 00.006-.003l.03-.018c.01-.006.019-.015.028-.021.003-.003.006-.003.006-.006.003-.003.009-.006.012-.012l6.24-6.24c.59-.592.59-1.55 0-2.14L9.736.442zM4.106 9.005L1.999 6.898l5.274-5.274L9.38 3.73 4.106 9.005zM1.702 7.458l1.841 1.84-2.764.92.923-2.76zm8.428-4.481l-.32.324-2.108-2.107.324-.324a.908.908 0 011.284 0l.823.823c.352.356.35.93-.003 1.284z" fill="#fff"/></svg>