<svg width="12" height="13" fill="none" xmlns="http://www.w3.org/2000/svg"><path d="M2.752 5.504H.25a.25.25 0 00-.25.25v6.005c0 .139.112.25.25.25h2.502a.25.25 0 00.25-.25V5.754a.25.25 0 00-.25-.25zm-.25 6.005H.5V6.005h2.002v5.504zM7.246 0H4.744a.25.25 0 00-.25.25v11.51c0 .138.112.25.25.25h2.502a.25.25 0 00.25-.25V.25a.25.25 0 00-.25-.25zm-.25 11.51H4.995V.5h2.001v11.01zm4.754-9.008H9.248a.25.25 0 00-.25.25v9.007c0 .139.112.25.25.25h2.502a.25.25 0 00.25-.25V2.752a.25.25 0 00-.25-.25zm-.25 9.007H9.498V3.002H11.5v8.507z" fill="#9D9FB7"/></svg>