<svg width="15" height="12" viewBox="0 0 15 12" fill="none" xmlns="http://www.w3.org/2000/svg">
<path d="M14.8906 3.82505L10.5157 0.0751016C10.4235 -0.00423332 10.2935 -0.0222507 10.1818 0.0284029C10.071 0.0793788 9.99992 0.190149 9.99992 0.312227V2.50399C6.50813 2.60105 4.82358 4.32951 4.02282 5.7861C3.32641 7.05227 3.17018 8.30589 3.13508 8.82043C3.12837 8.89918 3.125 8.97942 3.125 9.06121V9.06212C3.125 9.06212 3.125 9.06242 3.125 9.06274V9.06303C3.125 9.06332 3.125 9.06332 3.125 9.06332V9.06423V9.06453C3.125 9.06453 3.125 9.06482 3.125 9.06514V9.06543C3.125 9.06573 3.125 9.06605 3.125 9.06605C3.125 9.06634 3.125 9.06634 3.125 9.06634V9.06725C3.125 9.06754 3.125 9.06787 3.125 9.06816C3.125 9.06816 3.125 9.06845 3.125 9.06907V9.06936V9.06997V9.07027C3.125 9.07056 3.125 9.07088 3.125 9.07118L3.12529 9.07208C3.12529 9.07208 3.12529 9.07208 3.12529 9.07238C3.12529 9.07299 3.12529 9.07329 3.12529 9.07329C3.12529 9.07358 3.12529 9.0739 3.12529 9.07419V9.0751V9.07601V9.0763V9.07721C3.12529 9.0775 3.12529 9.07783 3.12529 9.07812C3.12529 9.07812 3.12529 9.07873 3.12559 9.07903C3.12559 9.07903 3.12559 9.07932 3.12559 9.07994V9.08023C3.12559 9.08052 3.12559 9.08084 3.12559 9.08114V9.08204C3.12559 9.08234 3.12559 9.08266 3.12559 9.08295C3.12529 9.08386 3.1262 9.08418 3.12588 9.08418V9.08509C3.12588 9.08538 3.12588 9.08571 3.12588 9.086V9.08691C3.12588 9.08752 3.12617 9.08814 3.12617 9.08814V9.08905C3.12617 9.08934 3.12617 9.08966 3.12617 9.08995V9.09025V9.09086V9.09116L3.12646 9.09177V9.09206C3.12646 9.09236 3.12646 9.09268 3.12646 9.09268C3.12646 9.09297 3.12646 9.09297 3.12646 9.09297V9.09388V9.09417C3.12676 9.09447 3.12676 9.09447 3.12676 9.09479C3.12676 9.09479 3.12676 9.09508 3.12676 9.0954V9.0957C3.12676 9.09599 3.12676 9.09599 3.12676 9.09599V9.09661C3.12705 9.09751 3.12705 9.09751 3.12705 9.09751C3.12705 9.09781 3.12705 9.09813 3.12705 9.09842V9.09871V9.09933V9.09962C3.12734 9.09992 3.12734 9.10024 3.12734 9.10024C3.12734 9.10085 3.12734 9.10115 3.12734 9.10115C3.14688 9.25525 3.2784 9.37428 3.43739 9.37428C3.6098 9.37428 3.74957 9.23483 3.74989 9.06239V9.06209C3.74989 9.04622 3.75019 9.00746 3.75294 8.94828C3.88935 6.34974 8.69001 5.76014 9.9998 5.64753V7.81181C9.9998 7.93389 10.0709 8.04466 10.1817 8.09563C10.2931 8.14629 10.4228 8.12859 10.5155 8.04893L14.8905 4.29898C14.9598 4.23977 14.9997 4.15311 14.9997 4.06186C14.9998 3.97092 14.9598 3.88426 14.8906 3.82505ZM10.6249 7.1328V5.31214C10.6249 5.22668 10.5901 5.14521 10.5282 5.08632C10.4702 5.03049 10.3927 4.99967 10.3124 4.99967C10.3078 4.99967 10.3029 4.99967 10.298 4.99996C10.078 5.01004 6.13275 5.21327 4.18911 6.8844C4.83211 5.18857 6.41473 3.12469 10.3108 3.12469H10.3124C10.3954 3.12469 10.4748 3.09173 10.5334 3.03314C10.5919 2.97455 10.6249 2.89521 10.6249 2.81218V0.991525L14.2073 4.06215L10.6249 7.1328Z" fill="white" fill-opacity="0.5"/>
<path d="M12.8123 7.00343C12.6396 7.00343 12.4998 7.1432 12.4998 7.31593V9.99993C12.4998 10.3445 12.2194 10.6249 11.8748 10.6249H1.24999C0.905467 10.6249 0.625011 10.3445 0.625011 9.99993V3.74999C0.625011 3.40547 0.905467 3.12501 1.24999 3.12501H5.57793C5.75067 3.12501 5.89044 2.98524 5.89044 2.81251C5.89044 2.63977 5.75067 2.5 5.57793 2.5H1.24999C0.560588 2.50003 0 3.06062 0 3.74999V9.9999C0 10.6893 0.560588 11.2499 1.24999 11.2499H11.8749C12.5642 11.2499 13.1249 10.6893 13.1249 9.9999V7.3159C13.1248 7.1432 12.9851 7.00343 12.8123 7.00343Z" fill="white" fill-opacity="0.5"/>
</svg>
