<svg width="13" height="13" fill="none" xmlns="http://www.w3.org/2000/svg"><g clip-path="url(#clip0)" fill="#fff"><path d="M10.716 3.667H2.283a.333.333 0 00-.25.083.283.283 0 00-.083.25l.867 7.55A1.65 1.65 0 004.467 13h4.2a1.65 1.65 0 001.666-1.5l.717-7.533a.283.283 0 00-.084-.217.333.333 0 00-.25-.083zm-1.05 7.8a.967.967 0 01-1 .866h-4.2a.95.95 0 01-.983-.85l-.833-7.15h7.7l-.684 7.133zM11.933 1.5H8.5V.967A.933.933 0 007.55 0h-2.1a.933.933 0 00-.95.967V1.5H1.067a.333.333 0 100 .667h10.866a.333.333 0 100-.667zm-4.1-.533V1.5H5.167V.967a.267.267 0 01.283-.3h2.1a.267.267 0 01.283.3z"/></g><defs><clipPath id="clip0"><path fill="#fff" d="M0 0h13v13H0z"/></clipPath></defs></svg>