<svg width="27" height="26" fill="none" xmlns="http://www.w3.org/2000/svg"><path opacity=".5" d="M15.949 7.091h-4.136a.591.591 0 00-.591.591v7.682H8.267a.591.591 0 000 1.182h2.955v1.773a.591.591 0 001.181 0v-1.773h2.955a.591.591 0 000-1.182h-2.955v-1.182h3.546a3.55 3.55 0 003.545-3.545A3.55 3.55 0 0015.95 7.09zm0 5.91h-3.546V8.272h3.546a2.366 2.366 0 012.364 2.364A2.366 2.366 0 0115.949 13z" fill="#fff"/><path opacity=".5" d="M13.585 0c-7.167 0-13 5.832-13 13s5.833 13 13 13c7.168 0 13-5.832 13-13s-5.832-13-13-13zm0 24.818C7.07 24.818 1.767 19.516 1.767 13c0-6.517 5.302-11.818 11.818-11.818 6.517 0 11.819 5.301 11.819 11.818 0 6.517-5.302 11.818-11.819 11.818z" fill="#fff"/></svg>