<svg width="27" height="26" viewBox="0 0 27 26" fill="none" xmlns="http://www.w3.org/2000/svg">
<path opacity="0.5" d="M15.949 7.09131H11.8126C11.4865 7.09131 11.2217 7.35604 11.2217 7.68222V15.364H8.26718C7.941 15.364 7.67627 15.6288 7.67627 15.9549C7.67627 16.2811 7.941 16.5459 8.26718 16.5459H11.2217V18.3186C11.2217 18.6448 11.4865 18.9095 11.8126 18.9095C12.1388 18.9095 12.4035 18.6448 12.4035 18.3186V16.5459H15.3581C15.6843 16.5459 15.949 16.2811 15.949 15.9549C15.949 15.6288 15.6843 15.364 15.3581 15.364H12.4035V14.1822H15.949C17.9037 14.1822 19.4945 12.5915 19.4945 10.6368C19.4945 8.68204 17.9037 7.09131 15.949 7.09131ZM15.949 13.0004H12.4035V8.27313H15.949C17.2525 8.27313 18.3126 9.33322 18.3126 10.6368C18.3126 11.9403 17.2525 13.0004 15.949 13.0004Z" fill="white"/>
<path opacity="0.5" d="M13.5854 0C6.41772 0 0.585449 5.83227 0.585449 13C0.585449 20.1677 6.41772 26 13.5854 26C20.7532 26 26.5854 20.1677 26.5854 13C26.5854 5.83227 20.7532 0 13.5854 0ZM13.5854 24.8182C7.0689 24.8182 1.76727 19.5165 1.76727 13C1.76727 6.48345 7.0689 1.18182 13.5854 1.18182C20.102 1.18182 25.4036 6.48345 25.4036 13C25.4036 19.5165 20.102 24.8182 13.5854 24.8182Z" fill="white"/>
</svg>
