<svg width="11" height="11" fill="none" xmlns="http://www.w3.org/2000/svg"><g clip-path="url(#clip0)" fill="#fff"><path d="M10.96 5.37c-.087-.126-2.17-3.08-5.46-3.08C2.677 2.29.16 5.226.054 5.35a.23.23 0 000 .297c.106.125 2.623 3.06 5.446 3.06 2.824 0 5.34-2.935 5.446-3.06a.229.229 0 00.014-.278zM5.5 8.25C3.237 8.25 1.084 6.09.538 5.5c.545-.592 2.696-2.75 4.962-2.75 2.65 0 4.519 2.155 4.975 2.738C9.948 6.06 7.783 8.25 5.5 8.25z"/><path d="M5.5 3.667A1.835 1.835 0 003.667 5.5c0 1.011.822 1.833 1.833 1.833A1.835 1.835 0 007.333 5.5 1.835 1.835 0 005.5 3.667zm0 3.208A1.377 1.377 0 014.125 5.5c0-.758.617-1.375 1.375-1.375s1.375.617 1.375 1.375S6.258 6.875 5.5 6.875z"/></g><defs><clipPath id="clip0"><path fill="#fff" d="M0 0h11v11H0z"/></clipPath></defs></svg>