<svg width="11" height="11" viewBox="0 0 11 11" fill="none" xmlns="http://www.w3.org/2000/svg">
<g clip-path="url(#clip0)">
<path d="M10.9597 5.36973C10.8731 5.24367 8.79134 2.2915 5.50046 2.2915C2.67662 2.2915 0.160329 5.22672 0.0544525 5.35185C-0.0174998 5.4371 -0.0174998 5.56223 0.0544525 5.64793C0.160329 5.77306 2.67662 8.70828 5.50046 8.70828C8.3243 8.70828 10.8406 5.77306 10.9464 5.64793C11.0129 5.5691 11.0189 5.45498 10.9597 5.36973ZM5.50046 8.24994C3.23673 8.24994 1.08434 6.09116 0.537558 5.4999C1.08344 4.90819 3.23352 2.74986 5.50046 2.74986C8.1492 2.74986 10.0188 4.90544 10.4753 5.48753C9.94818 6.05999 7.78345 8.24994 5.50046 8.24994Z" fill="white"/>
<path d="M5.49986 3.6665C4.48877 3.6665 3.6665 4.48877 3.6665 5.49986C3.6665 6.51095 4.48877 7.33321 5.49986 7.33321C6.51095 7.33321 7.33322 6.51095 7.33322 5.49986C7.33322 4.48877 6.51095 3.6665 5.49986 3.6665ZM5.49986 6.8749C4.74177 6.8749 4.12484 6.25797 4.12484 5.49988C4.12484 4.74179 4.74177 4.12486 5.49986 4.12486C6.25795 4.12486 6.87488 4.74179 6.87488 5.49988C6.87488 6.25797 6.25795 6.8749 5.49986 6.8749Z" fill="white"/>
</g>
<defs>
<clipPath id="clip0">
<rect width="11" height="11" fill="white"/>
</clipPath>
</defs>
</svg>
