<svg width="274" height="275" fill="none" xmlns="http://www.w3.org/2000/svg"><mask id="a" maskUnits="userSpaceOnUse" x="0" y="0" width="274" height="275"><circle cx="137" cy="137.429" r="137" fill="#fff" fill-opacity=".5"/></mask><g mask="url(#a)" fill="#fff" fill-opacity=".5"><circle cx="4.621" cy="6.434" r="6.005"/><circle cx="4.621" cy="43.663" r="6.005"/><circle cx="4.621" cy="80.893" r="6.005"/><circle cx="4.621" cy="118.123" r="6.005"/><circle cx="4.621" cy="155.352" r="6.005"/><circle cx="4.621" cy="192.582" r="6.005"/><circle cx="4.621" cy="229.811" r="6.005"/><circle cx="4.621" cy="267.041" r="6.005"/><circle cx="38.248" cy="6.434" r="6.005"/><circle cx="38.248" cy="43.663" r="6.005"/><circle cx="38.248" cy="80.893" r="6.005"/><circle cx="38.248" cy="118.123" r="6.005"/><circle cx="38.248" cy="155.352" r="6.005"/><circle cx="38.248" cy="192.582" r="6.005"/><circle cx="38.248" cy="229.811" r="6.005"/><circle cx="38.248" cy="267.041" r="6.005"/><circle cx="71.874" cy="6.434" r="6.005"/><circle cx="71.874" cy="43.663" r="6.005"/><circle cx="71.874" cy="80.893" r="6.005"/><circle cx="71.874" cy="118.122" r="6.005"/><circle cx="71.874" cy="155.352" r="6.005"/><circle cx="71.874" cy="192.581" r="6.005"/><circle cx="71.874" cy="229.811" r="6.005"/><circle cx="71.874" cy="267.041" r="6.005"/><circle cx="105.501" cy="6.434" r="6.005"/><circle cx="105.501" cy="43.663" r="6.005"/><circle cx="105.501" cy="80.893" r="6.005"/><circle cx="105.501" cy="118.122" r="6.005"/><circle cx="105.501" cy="155.352" r="6.005"/><circle cx="105.501" cy="192.581" r="6.005"/><circle cx="105.501" cy="229.811" r="6.005"/><circle cx="105.501" cy="267.041" r="6.005"/><circle cx="139.128" cy="6.434" r="6.005"/><circle cx="139.128" cy="43.663" r="6.005"/><circle cx="139.128" cy="80.893" r="6.005"/><circle cx="139.128" cy="118.122" r="6.005"/><circle cx="139.128" cy="155.352" r="6.005"/><circle cx="139.128" cy="192.581" r="6.005"/><circle cx="139.128" cy="229.811" r="6.005"/><circle cx="139.128" cy="267.041" r="6.005"/><circle cx="172.755" cy="6.434" r="6.005"/><circle cx="172.755" cy="43.663" r="6.005"/><circle cx="172.755" cy="80.893" r="6.005"/><circle cx="172.755" cy="118.122" r="6.005"/><circle cx="172.755" cy="155.352" r="6.005"/><circle cx="172.755" cy="192.581" r="6.005"/><circle cx="172.755" cy="229.811" r="6.005"/><circle cx="172.755" cy="267.041" r="6.005"/><circle cx="206.381" cy="6.434" r="6.005"/><circle cx="206.381" cy="43.663" r="6.005"/><circle cx="206.381" cy="80.893" r="6.005"/><circle cx="206.381" cy="118.122" r="6.005"/><circle cx="206.381" cy="155.352" r="6.005"/><circle cx="206.381" cy="192.581" r="6.005"/><circle cx="206.381" cy="229.811" r="6.005"/><circle cx="206.381" cy="267.041" r="6.005"/><circle cx="240.008" cy="6.434" r="6.005"/><circle cx="240.008" cy="43.663" r="6.005"/><circle cx="240.008" cy="80.893" r="6.005"/><circle cx="240.008" cy="118.122" r="6.005"/><circle cx="240.008" cy="155.352" r="6.005"/><circle cx="240.008" cy="192.581" r="6.005"/><circle cx="240.008" cy="229.811" r="6.005"/><circle cx="240.008" cy="267.041" r="6.005"/><circle cx="273.635" cy="6.434" r="6.005"/><circle cx="273.635" cy="43.663" r="6.005"/><circle cx="273.635" cy="80.893" r="6.005"/><circle cx="273.635" cy="118.122" r="6.005"/><circle cx="273.635" cy="155.352" r="6.005"/><circle cx="273.635" cy="192.581" r="6.005"/><circle cx="273.635" cy="229.811" r="6.005"/><circle cx="273.635" cy="267.041" r="6.005"/></g></svg>